PathFileType	4	(X/Y/Z)	Patient4_TMGait_0pt5_01_left_03.trc.trc
DataRate	CameraRate	NumFrames	NumMarkers	Units	OrigDataRate	OrigDataStartFrame	OrigNumFrames
71.794871794872	71.794871794872	4	33	mm	71.794871794872	53	       141
Frame#	Time	L.ASIS			Sacral			L.Shoulder			Chest			R.Shoulder			Neck			R.ASIS			R.Thigh.Superior			R.Thigh.Lateral			R.Thigh.Inferior			R.Patella			L.Thigh.Superior			L.Thigh.Lateral			L.Thigh.Inferior			L.Patella			L.Shank.Superior			L.Shank.Lateral			L.Shank.Inferior			R.Shank.Superior			R.Shank.Lateral			R.Shank.Inferior			R.Heel			R.Midfoot.Superior			R.Midfoot.Lateral			R.Toe			L.Heel			L.Midfoot.Lateral			L.Midfoot.Superior			L.Toe			L.Elbow			L.Wrist			R.Elbow			R.Wrist			
		X1	Y1	Z1	X2	Y2	Z2	X3	Y3	Z3	X4	Y4	Z4	X5	Y5	Z5	X6	Y6	Z6	X7	Y7	Z7	X8	Y8	Z8	X9	Y9	Z9	X10	Y10	Z10	X11	Y11	Z11	X12	Y12	Z12	X13	Y13	Z13	X14	Y14	Z14	X15	Y15	Z15	X16	Y16	Z16	X17	Y17	Z17	X18	Y18	Z18	X19	Y19	Z19	X20	Y20	Z20	X21	Y21	Z21	X22	Y22	Z22	X23	Y23	Z23	X24	Y24	Z24	X25	Y25	Z25	X26	Y26	Z26	X27	Y27	Z27	X28	Y28	Z28	X29	Y29	Z29	X30	Y30	Z30	X31	Y31	Z31	X32	Y32	Z32	X33	Y33	Z33	

53	4.554285714286	741.923702248743	965.791456167204	288.154198650434	524.197020796899	1003.595630114614	445.328368797594	684.530146106246	1436.316305075266	259.697775868764	788.517365693314	1371.804811856855	422.630299211648	700.014928616220	1445.145942009614	595.423121701582	684.126616444488	1499.534418142617	409.610736792552	752.606933559279	947.917198352004	563.005651380436	834.358206333366	773.198848839946	539.973857496290	787.776101573493	652.849215354531	611.894778790953	880.919629300042	611.696446198111	538.111884225980	896.344533328827	498.015952723328	560.822074685043	791.890769485595	753.778964823395	320.665979511179	703.144179125937	637.108811995963	266.690711254644	785.721680709993	560.694381501687	332.456574420115	785.143119228453	490.983945939107	345.493683582044	761.116776100429	418.770362913286	338.796608157728	675.699458232219	300.812561581270	287.048655689837	726.106353678554	193.870755561747	366.238451349484	820.979854637856	423.068055655779	563.690707761795	698.568972476541	381.329077954478	619.385153943516	686.450774611821	273.091920241149	569.221051838664	485.830526581942	209.483161706556	532.306636890199	655.076073528355	158.132921593958	585.081887587110	543.238089438544	156.634780507212	611.940826118809	719.272552132260	47.570484148811	621.616132970506	598.672654526730	37.379682785127	409.181153038579	676.382343317082	34.535496695984	331.228292998189	758.019851839292	95.718295757279	360.509545620613	887.682212694306	45.429841148399	339.804932098587	670.843930293109	1084.114807148229	130.827395896375	814.817319387112	865.337806227496	133.642366967797	681.051340615672	1097.593942281497	714.340478509077	797.654605571024	865.160792851165	691.303479848788	
54	4.568214285714	741.396337210242	966.306811471870	287.224873496160	522.804465027954	1004.159458119697	443.175175689924	685.028739755262	1437.142343099454	258.659962487584	787.380805003864	1372.392321953601	422.525303203827	697.304598783360	1445.419703654259	594.583858203477	683.213977712027	1500.175932313299	408.677884416817	750.600153632163	948.971004954256	562.204168647271	834.491189121245	776.535817883588	539.146804383658	790.096493016781	655.791637207355	611.596833949458	883.612899838706	615.893863464653	537.666498941858	901.333220995683	502.985743798929	560.701311611820	788.930514323858	753.012755057577	320.111194641962	698.816875161996	637.281089760935	265.923098185059	780.096670737566	559.995792739643	331.996608331212	778.606058451782	490.569628400921	345.218842528196	754.691876471911	418.646243987989	338.423149776722	669.179473883738	300.782959815959	286.752384677749	719.325394156165	193.866428705895	366.132282489229	828.335129453583	426.221626393513	563.715918434575	707.649017306868	380.424200478113	619.636799174054	699.104499934432	271.803641388948	569.659253204432	500.857326612659	201.152766296905	533.392396656719	671.895854882364	155.882754000018	585.584181734107	560.331456570734	150.306886886597	612.736425588718	739.929134112311	47.764346459397	621.612147756802	591.609324475766	37.393216362523	409.169855181195	669.363513263925	34.539578302588	331.217036036353	751.030700782934	95.715165288191	360.464038867707	880.669044881722	45.349627939973	339.790885254089	676.415773822570	1085.367818279954	128.164207705836	826.746302354817	870.952671976838	131.184342122943	669.208831343282	1098.682478743076	713.424218742699	770.651677447844	858.245595100007	696.736982589094	
55	4.582142857143	740.904800789476	966.719380182517	286.494816086796	521.468937787990	1004.681531979872	441.164924102485	685.617650189515	1437.863524779590	257.734166461292	786.289299596892	1372.900760280935	422.539832900896	694.623497347025	1445.655300508359	593.831591302191	682.312376246904	1500.737535885296	407.841030201741	748.613062539942	949.880486982712	561.549184791301	834.227531266858	779.442531990128	538.403734583621	791.805126630538	658.403937135894	611.416027050994	885.418979307079	619.528085870520	537.198879934322	905.319217240541	507.670020912255	560.608269437350	785.935609272196	752.198532934059	319.791517552269	694.489220500461	637.435936303041	265.212850429301	774.357875241578	559.289993429642	331.658025779025	771.931196696083	490.175393308198	345.032853752886	748.166962385928	418.530156930781	338.114518012033	662.627581731910	300.732498137089	286.491147312872	712.521795422276	193.871404442096	366.085348502336	835.131560065562	429.013023373335	563.882875687049	716.730361153094	378.525622730252	620.284922220118	712.380744912944	269.592366555153	570.489862249670	517.185844138373	190.800358316511	535.219721718628	690.111770730079	152.644683103360	586.505440183211	579.076352542215	142.375946566523	614.175528102810	762.594045813640	47.613669441605	621.895993765055	584.550867774707	37.393041038947	409.171997641332	662.339397630376	34.539646801244	331.215955162765	744.028623941468	95.719209846928	360.432870050113	873.646044765633	45.303418546242	339.788273070198	681.587016321212	1086.613435313246	125.751026239976	838.514083777740	877.015667441255	129.017992248705	657.406957432255	1100.040703808852	712.537549983666	743.777904556188	853.105683681364	701.930960983674	
56	4.596071428571	740.459328349534	967.015770517157	285.968067701639	520.197439272237	1005.132829292790	439.291088593857	686.274054435524	1438.442289480807	256.925204255271	785.242547091475	1373.302620157688	422.670213166954	691.985460054568	1445.839184045182	593.170936226785	681.431349933932	1501.195157517573	407.100362094203	746.651741002455	950.613027605512	561.040118802972	833.568757803493	781.846504632789	537.752379947953	792.869474723524	660.606786356623	611.346808522397	886.320374229145	622.503978146538	536.710440024110	908.284685311248	511.981036262024	560.520945234448	782.934396306325	751.334503561736	319.694153448290	690.193878887441	637.565997214068	264.544005181355	768.538295316870	558.576177204333	331.425790147788	765.158453034070	489.794614214071	344.917222073819	741.566267173248	418.414949537448	337.857272797629	656.064069014427	300.655855212994	286.245155251393	705.701560810529	193.877791741123	366.085579569374	841.323531737905	431.420378098451	564.174674568947	725.792367277827	375.751735789746	621.299024226039	726.198042547701	266.645727606609	571.678338934025	534.842473258575	178.821186493143	537.689793580108	709.573219055528	148.708565260457	587.819072339478	599.385786065867	133.236888711374	616.189081792007	786.961207247632	47.374115200820	622.474113808722	577.501897553848	37.381366797824	409.182290913431	655.311680830638	34.534932669239	331.223787513566	737.015782815089	95.726554279576	360.416812025910	866.616288093702	45.287322878414	339.797845111081	686.385481764272	1087.795037616892	123.566927302216	850.084263891061	883.480063306834	127.140973525539	645.653152324718	1101.642867251002	711.684397522696	717.295468406728	849.658260098812	706.840563492162	
